<svg width="21" height="20" viewBox="0 0 21 20" fill="none" xmlns="http://www.w3.org/2000/svg">
<path d="M17.8336 9.0625L16.4062 7.70406V4.375C16.4062 3.85937 15.9633 3.4375 15.4219 3.4375H14.4375C13.8961 3.4375 13.4531 3.85937 13.4531 4.375V4.89344L11.4844 3.02031C11.2156 2.77844 10.9695 2.5 10.5 2.5C10.0305 2.5 9.78436 2.77844 9.51562 3.02031L3.16641 9.0625C2.85928 9.36719 2.625 9.58938 2.625 10C2.625 10.5278 3.05025 10.9375 3.60938 10.9375H4.59375V16.5625C4.59375 17.0781 5.03672 17.5 5.57812 17.5H7.54688C8.09053 17.5 8.53125 17.0803 8.53125 16.5625V12.8125C8.53125 12.2969 8.97422 11.875 9.51562 11.875H11.4844C12.0258 11.875 12.4688 12.2969 12.4688 12.8125V16.5625C12.4688 17.0803 12.4173 17.5 12.9609 17.5H15.4219C15.9633 17.5 16.4062 17.0781 16.4062 16.5625V10.9375H17.3906C17.9498 10.9375 18.375 10.5278 18.375 10C18.375 9.58938 18.1407 9.36719 17.8336 9.0625Z" stroke="#404040" stroke-width="2" stroke-linejoin="round"/>
</svg>
