<svg width="22" height="19" viewBox="0 0 22 19" fill="none" xmlns="http://www.w3.org/2000/svg">
<path d="M15.5833 7.12492V5.54158C15.5833 5.12166 15.3902 4.71893 15.0464 4.422C14.7025 4.12507 14.2362 3.95825 13.75 3.95825H4.58333C4.0971 3.95825 3.63079 4.12507 3.28697 4.422C2.94315 4.71893 2.75 5.12166 2.75 5.54158V10.2916C2.75 10.7115 2.94315 11.1142 3.28697 11.4112C3.63079 11.7081 4.0971 11.8749 4.58333 11.8749H6.41667M8.25 7.12492H17.4167C18.4292 7.12492 19.25 7.8338 19.25 8.70825V13.4583C19.25 14.3327 18.4292 15.0416 17.4167 15.0416H8.25C7.23748 15.0416 6.41667 14.3327 6.41667 13.4583V8.70825C6.41667 7.8338 7.23748 7.12492 8.25 7.12492ZM14.6667 11.0833C14.6667 11.9577 13.8459 12.6666 12.8333 12.6666C11.8208 12.6666 11 11.9577 11 11.0833C11 10.2088 11.8208 9.49992 12.8333 9.49992C13.8459 9.49992 14.6667 10.2088 14.6667 11.0833Z" stroke="black" stroke-width="2" stroke-linecap="round" stroke-linejoin="round"/>
</svg>
