<svg width="21" height="20" viewBox="0 0 21 20" fill="none" xmlns="http://www.w3.org/2000/svg">
<path d="M4.72498 16C5.1285 15.5696 7.01839 13.5889 7.57223 13.5889H13.4281C14.2306 13.5889 15.869 15.2307 16.275 15.8095M18.9 10C18.9 14.4183 15.1392 18 10.5 18C5.86078 18 2.09998 14.4183 2.09998 10C2.09998 5.58172 5.86078 2 10.5 2C15.1392 2 18.9 5.58172 18.9 10ZM13.509 7.2733C13.509 5.74704 12.1561 4.5 10.5002 4.5C8.8444 4.5 7.4915 5.74704 7.4915 7.2733C7.4915 8.79956 8.8444 10.0466 10.5002 10.0466C12.1561 10.0466 13.509 8.79956 13.509 7.2733Z" stroke="black" stroke-width="2"/>
</svg>
